<mxfile host="app.diagrams.net" modified="2021-05-19T12:48:20.135Z" agent="5.0 (Windows NT 10.0; Win64; x64) AppleWebKit/537.36 (KHTML, like Gecko) Chrome/90.0.4430.212 Safari/537.36" etag="nWlJHuhOCNldeqhW2U3R" version="14.6.13" type="github">
  <diagram id="C5RBs43oDa-KdzZeNtuy" name="Page-1">
    <mxGraphModel dx="1548" dy="416" grid="1" gridSize="10" guides="1" tooltips="1" connect="1" arrows="1" fold="1" page="1" pageScale="1" pageWidth="827" pageHeight="1169" math="0" shadow="0">
      <root>
        <mxCell id="WIyWlLk6GJQsqaUBKTNV-0" />
        <mxCell id="WIyWlLk6GJQsqaUBKTNV-1" parent="WIyWlLk6GJQsqaUBKTNV-0" />
        <mxCell id="WIyWlLk6GJQsqaUBKTNV-2" value="" style="rounded=0;html=1;jettySize=auto;orthogonalLoop=1;fontSize=11;endArrow=classic;endFill=1;endSize=8;strokeWidth=1;shadow=0;labelBackgroundColor=none;edgeStyle=orthogonalEdgeStyle;" parent="WIyWlLk6GJQsqaUBKTNV-1" source="WIyWlLk6GJQsqaUBKTNV-3" target="WIyWlLk6GJQsqaUBKTNV-6" edge="1">
          <mxGeometry relative="1" as="geometry" />
        </mxCell>
        <mxCell id="WIyWlLk6GJQsqaUBKTNV-3" value="遍历nsq实例列表" style="rounded=1;whiteSpace=wrap;html=1;fontSize=12;glass=0;strokeWidth=1;shadow=0;" parent="WIyWlLk6GJQsqaUBKTNV-1" vertex="1">
          <mxGeometry x="160" y="80" width="120" height="40" as="geometry" />
        </mxCell>
        <mxCell id="WIyWlLk6GJQsqaUBKTNV-4" value="否" style="rounded=0;html=1;jettySize=auto;orthogonalLoop=1;fontSize=11;endArrow=classic;endFill=1;endSize=8;strokeWidth=1;shadow=0;labelBackgroundColor=none;edgeStyle=orthogonalEdgeStyle;exitX=0;exitY=0.5;exitDx=0;exitDy=0;" parent="WIyWlLk6GJQsqaUBKTNV-1" source="WIyWlLk6GJQsqaUBKTNV-6" edge="1">
          <mxGeometry x="-0.8095" y="-105" relative="1" as="geometry">
            <mxPoint as="offset" />
            <mxPoint x="120" y="240" as="sourcePoint" />
            <mxPoint x="120" y="280" as="targetPoint" />
          </mxGeometry>
        </mxCell>
        <mxCell id="WIyWlLk6GJQsqaUBKTNV-5" value="是" style="edgeStyle=orthogonalEdgeStyle;rounded=0;html=1;jettySize=auto;orthogonalLoop=1;fontSize=11;endArrow=classic;endFill=1;endSize=8;strokeWidth=1;shadow=0;labelBackgroundColor=none;entryX=0.5;entryY=0;entryDx=0;entryDy=0;" parent="WIyWlLk6GJQsqaUBKTNV-1" source="WIyWlLk6GJQsqaUBKTNV-6" target="MfxYUc8zOfT5m0aMHdfd-27" edge="1">
          <mxGeometry x="-0.8777" y="15" relative="1" as="geometry">
            <mxPoint as="offset" />
            <mxPoint x="380" y="510" as="targetPoint" />
          </mxGeometry>
        </mxCell>
        <mxCell id="WIyWlLk6GJQsqaUBKTNV-6" value="是否所有实例&lt;br&gt;均已检查?" style="rhombus;whiteSpace=wrap;html=1;shadow=0;fontFamily=Helvetica;fontSize=12;align=center;strokeWidth=1;spacing=6;spacingTop=-4;" parent="WIyWlLk6GJQsqaUBKTNV-1" vertex="1">
          <mxGeometry x="140" y="170" width="160" height="50" as="geometry" />
        </mxCell>
        <mxCell id="MfxYUc8zOfT5m0aMHdfd-0" value="获取当前实例" style="rounded=0;whiteSpace=wrap;html=1;" parent="WIyWlLk6GJQsqaUBKTNV-1" vertex="1">
          <mxGeometry x="60" y="280" width="120" height="30" as="geometry" />
        </mxCell>
        <mxCell id="MfxYUc8zOfT5m0aMHdfd-3" value="" style="rounded=0;html=1;jettySize=auto;orthogonalLoop=1;fontSize=11;endArrow=classic;endFill=1;endSize=8;strokeWidth=1;shadow=0;labelBackgroundColor=none;edgeStyle=orthogonalEdgeStyle;" parent="WIyWlLk6GJQsqaUBKTNV-1" edge="1">
          <mxGeometry relative="1" as="geometry">
            <mxPoint x="119.30999999999999" y="310" as="sourcePoint" />
            <mxPoint x="119" y="340" as="targetPoint" />
          </mxGeometry>
        </mxCell>
        <mxCell id="MfxYUc8zOfT5m0aMHdfd-6" value="发起RPC请求&lt;br&gt;获取实例当前信息" style="rounded=0;whiteSpace=wrap;html=1;" parent="WIyWlLk6GJQsqaUBKTNV-1" vertex="1">
          <mxGeometry x="60" y="340" width="120" height="30" as="geometry" />
        </mxCell>
        <mxCell id="MfxYUc8zOfT5m0aMHdfd-9" value="是否没有topic?" style="rhombus;whiteSpace=wrap;html=1;shadow=0;fontFamily=Helvetica;fontSize=12;align=center;strokeWidth=1;spacing=6;spacingTop=-4;" parent="WIyWlLk6GJQsqaUBKTNV-1" vertex="1">
          <mxGeometry x="60" y="404.5" width="120" height="50" as="geometry" />
        </mxCell>
        <mxCell id="MfxYUc8zOfT5m0aMHdfd-10" value="" style="rounded=0;html=1;jettySize=auto;orthogonalLoop=1;fontSize=11;endArrow=classic;endFill=1;endSize=8;strokeWidth=1;shadow=0;labelBackgroundColor=none;edgeStyle=orthogonalEdgeStyle;" parent="WIyWlLk6GJQsqaUBKTNV-1" edge="1">
          <mxGeometry relative="1" as="geometry">
            <mxPoint x="120" y="380" as="sourcePoint" />
            <mxPoint x="119.71" y="404.5" as="targetPoint" />
          </mxGeometry>
        </mxCell>
        <mxCell id="MfxYUc8zOfT5m0aMHdfd-12" value="否" style="edgeStyle=orthogonalEdgeStyle;rounded=0;html=1;jettySize=auto;orthogonalLoop=1;fontSize=11;endArrow=classic;endFill=1;endSize=8;strokeWidth=1;shadow=0;labelBackgroundColor=none;exitX=0.5;exitY=1;exitDx=0;exitDy=0;" parent="WIyWlLk6GJQsqaUBKTNV-1" source="MfxYUc8zOfT5m0aMHdfd-9" edge="1">
          <mxGeometry x="-0.6" y="15" relative="1" as="geometry">
            <mxPoint as="offset" />
            <mxPoint x="180" y="765" as="sourcePoint" />
            <mxPoint x="120" y="480" as="targetPoint" />
          </mxGeometry>
        </mxCell>
        <mxCell id="MfxYUc8zOfT5m0aMHdfd-13" value="生成错误信息" style="rounded=1;whiteSpace=wrap;html=1;fontSize=12;glass=0;strokeWidth=1;shadow=0;" parent="WIyWlLk6GJQsqaUBKTNV-1" vertex="1">
          <mxGeometry x="180" y="740" width="120" height="20" as="geometry" />
        </mxCell>
        <mxCell id="MfxYUc8zOfT5m0aMHdfd-19" value="" style="endArrow=classic;html=1;exitX=0.5;exitY=1;exitDx=0;exitDy=0;" parent="WIyWlLk6GJQsqaUBKTNV-1" edge="1">
          <mxGeometry width="50" height="50" relative="1" as="geometry">
            <mxPoint x="370" y="330" as="sourcePoint" />
            <mxPoint x="300" y="750" as="targetPoint" />
            <Array as="points">
              <mxPoint x="370" y="750" />
            </Array>
          </mxGeometry>
        </mxCell>
        <mxCell id="MfxYUc8zOfT5m0aMHdfd-20" value="" style="endArrow=classic;html=1;entryX=0.5;entryY=0;entryDx=0;entryDy=0;" parent="WIyWlLk6GJQsqaUBKTNV-1" target="MfxYUc8zOfT5m0aMHdfd-21" edge="1">
          <mxGeometry width="50" height="50" relative="1" as="geometry">
            <mxPoint x="240" y="764" as="sourcePoint" />
            <mxPoint x="180" y="820" as="targetPoint" />
            <Array as="points">
              <mxPoint x="240" y="780" />
            </Array>
          </mxGeometry>
        </mxCell>
        <mxCell id="MfxYUc8zOfT5m0aMHdfd-21" value="回复server" style="rounded=1;whiteSpace=wrap;html=1;fontSize=12;glass=0;strokeWidth=1;shadow=0;" parent="WIyWlLk6GJQsqaUBKTNV-1" vertex="1">
          <mxGeometry x="180" y="810" width="120" height="20" as="geometry" />
        </mxCell>
        <mxCell id="MfxYUc8zOfT5m0aMHdfd-27" value="生成执行成功的结果" style="rounded=0;whiteSpace=wrap;html=1;" parent="WIyWlLk6GJQsqaUBKTNV-1" vertex="1">
          <mxGeometry x="320" y="280" width="120" height="30" as="geometry" />
        </mxCell>
        <mxCell id="MfxYUc8zOfT5m0aMHdfd-28" value="" style="endArrow=classic;html=1;exitX=0.5;exitY=1;exitDx=0;exitDy=0;" parent="WIyWlLk6GJQsqaUBKTNV-1" source="MfxYUc8zOfT5m0aMHdfd-21" edge="1">
          <mxGeometry width="50" height="50" relative="1" as="geometry">
            <mxPoint x="220" y="930" as="sourcePoint" />
            <mxPoint x="240" y="860" as="targetPoint" />
          </mxGeometry>
        </mxCell>
        <mxCell id="MfxYUc8zOfT5m0aMHdfd-29" value="结束" style="rounded=0;whiteSpace=wrap;html=1;" parent="WIyWlLk6GJQsqaUBKTNV-1" vertex="1">
          <mxGeometry x="180" y="860" width="120" height="30" as="geometry" />
        </mxCell>
        <mxCell id="MfxYUc8zOfT5m0aMHdfd-30" value="开始" style="rounded=0;whiteSpace=wrap;html=1;" parent="WIyWlLk6GJQsqaUBKTNV-1" vertex="1">
          <mxGeometry x="160" y="10" width="120" height="30" as="geometry" />
        </mxCell>
        <mxCell id="MfxYUc8zOfT5m0aMHdfd-31" value="" style="endArrow=classic;html=1;" parent="WIyWlLk6GJQsqaUBKTNV-1" edge="1">
          <mxGeometry width="50" height="50" relative="1" as="geometry">
            <mxPoint x="220" y="43" as="sourcePoint" />
            <mxPoint x="220" y="80" as="targetPoint" />
          </mxGeometry>
        </mxCell>
        <mxCell id="h4HgqZ1DdEqafHkiH3Wq-0" value="" style="rounded=0;html=1;jettySize=auto;orthogonalLoop=1;fontSize=11;endArrow=classic;endFill=1;endSize=8;strokeWidth=1;shadow=0;labelBackgroundColor=none;edgeStyle=orthogonalEdgeStyle;" parent="WIyWlLk6GJQsqaUBKTNV-1" edge="1">
          <mxGeometry relative="1" as="geometry">
            <mxPoint x="120" y="370" as="sourcePoint" />
            <mxPoint x="119.71000000000004" y="404.5" as="targetPoint" />
          </mxGeometry>
        </mxCell>
        <mxCell id="h4HgqZ1DdEqafHkiH3Wq-1" value="是" style="text;html=1;align=center;verticalAlign=middle;resizable=0;points=[];autosize=1;strokeColor=none;" parent="WIyWlLk6GJQsqaUBKTNV-1" vertex="1">
          <mxGeometry x="180" y="410" width="30" height="20" as="geometry" />
        </mxCell>
        <mxCell id="h4HgqZ1DdEqafHkiH3Wq-2" value="节点状态是否异常?" style="rhombus;whiteSpace=wrap;html=1;shadow=0;fontFamily=Helvetica;fontSize=12;align=center;strokeWidth=1;spacing=6;spacingTop=-4;" parent="WIyWlLk6GJQsqaUBKTNV-1" vertex="1">
          <mxGeometry x="60" y="480" width="120" height="50" as="geometry" />
        </mxCell>
        <mxCell id="h4HgqZ1DdEqafHkiH3Wq-3" value="否" style="edgeStyle=orthogonalEdgeStyle;rounded=0;html=1;jettySize=auto;orthogonalLoop=1;fontSize=11;endArrow=classic;endFill=1;endSize=8;strokeWidth=1;shadow=0;labelBackgroundColor=none;exitX=0.5;exitY=1;exitDx=0;exitDy=0;" parent="WIyWlLk6GJQsqaUBKTNV-1" source="h4HgqZ1DdEqafHkiH3Wq-2" edge="1">
          <mxGeometry x="-0.6" y="15" relative="1" as="geometry">
            <mxPoint as="offset" />
            <mxPoint x="180" y="840.5" as="sourcePoint" />
            <mxPoint x="120" y="555.5" as="targetPoint" />
          </mxGeometry>
        </mxCell>
        <mxCell id="h4HgqZ1DdEqafHkiH3Wq-6" value="消息堆积是否过多?" style="rhombus;whiteSpace=wrap;html=1;shadow=0;fontFamily=Helvetica;fontSize=12;align=center;strokeWidth=1;spacing=6;spacingTop=-4;" parent="WIyWlLk6GJQsqaUBKTNV-1" vertex="1">
          <mxGeometry x="60" y="557" width="120" height="50" as="geometry" />
        </mxCell>
        <mxCell id="h4HgqZ1DdEqafHkiH3Wq-7" value="否" style="edgeStyle=orthogonalEdgeStyle;rounded=0;html=1;jettySize=auto;orthogonalLoop=1;fontSize=11;endArrow=classic;endFill=1;endSize=8;strokeWidth=1;shadow=0;labelBackgroundColor=none;exitX=0;exitY=0.5;exitDx=0;exitDy=0;" parent="WIyWlLk6GJQsqaUBKTNV-1" source="h4HgqZ1DdEqafHkiH3Wq-18" edge="1">
          <mxGeometry x="-0.9739" y="-14" relative="1" as="geometry">
            <mxPoint as="offset" />
            <mxPoint x="60" y="662" as="sourcePoint" />
            <mxPoint x="150" y="100" as="targetPoint" />
            <Array as="points">
              <mxPoint x="60" y="660" />
              <mxPoint y="660" />
              <mxPoint y="100" />
              <mxPoint x="150" y="100" />
            </Array>
          </mxGeometry>
        </mxCell>
        <mxCell id="h4HgqZ1DdEqafHkiH3Wq-10" value="是" style="text;html=1;align=center;verticalAlign=middle;resizable=0;points=[];autosize=1;strokeColor=none;" parent="WIyWlLk6GJQsqaUBKTNV-1" vertex="1">
          <mxGeometry x="180" y="480" width="30" height="20" as="geometry" />
        </mxCell>
        <mxCell id="h4HgqZ1DdEqafHkiH3Wq-11" value="是" style="text;html=1;align=center;verticalAlign=middle;resizable=0;points=[];autosize=1;strokeColor=none;" parent="WIyWlLk6GJQsqaUBKTNV-1" vertex="1">
          <mxGeometry x="180" y="557" width="30" height="20" as="geometry" />
        </mxCell>
        <mxCell id="h4HgqZ1DdEqafHkiH3Wq-13" value="" style="endArrow=none;html=1;exitX=0.076;exitY=1.029;exitDx=0;exitDy=0;exitPerimeter=0;entryX=0.5;entryY=0;entryDx=0;entryDy=0;" parent="WIyWlLk6GJQsqaUBKTNV-1" source="h4HgqZ1DdEqafHkiH3Wq-1" target="MfxYUc8zOfT5m0aMHdfd-13" edge="1">
          <mxGeometry width="50" height="50" relative="1" as="geometry">
            <mxPoint x="220" y="470" as="sourcePoint" />
            <mxPoint x="240" y="644.5714285714286" as="targetPoint" />
            <Array as="points">
              <mxPoint x="240" y="431" />
            </Array>
          </mxGeometry>
        </mxCell>
        <mxCell id="h4HgqZ1DdEqafHkiH3Wq-14" value="" style="endArrow=none;html=1;" parent="WIyWlLk6GJQsqaUBKTNV-1" edge="1">
          <mxGeometry width="50" height="50" relative="1" as="geometry">
            <mxPoint x="180" y="505" as="sourcePoint" />
            <mxPoint x="240" y="505" as="targetPoint" />
          </mxGeometry>
        </mxCell>
        <mxCell id="h4HgqZ1DdEqafHkiH3Wq-15" value="" style="endArrow=none;html=1;" parent="WIyWlLk6GJQsqaUBKTNV-1" edge="1">
          <mxGeometry width="50" height="50" relative="1" as="geometry">
            <mxPoint x="180" y="581.71" as="sourcePoint" />
            <mxPoint x="240" y="581.71" as="targetPoint" />
          </mxGeometry>
        </mxCell>
        <mxCell id="h4HgqZ1DdEqafHkiH3Wq-17" value="否" style="edgeStyle=orthogonalEdgeStyle;rounded=0;html=1;jettySize=auto;orthogonalLoop=1;fontSize=11;endArrow=classic;endFill=1;endSize=8;strokeWidth=1;shadow=0;labelBackgroundColor=none;exitX=0.5;exitY=1;exitDx=0;exitDy=0;" parent="WIyWlLk6GJQsqaUBKTNV-1" edge="1">
          <mxGeometry x="-0.6" y="15" relative="1" as="geometry">
            <mxPoint as="offset" />
            <mxPoint x="120" y="607.0000000000001" as="sourcePoint" />
            <mxPoint x="120" y="632.5" as="targetPoint" />
          </mxGeometry>
        </mxCell>
        <mxCell id="h4HgqZ1DdEqafHkiH3Wq-18" value="连接数是否&lt;br&gt;变化较大?" style="rhombus;whiteSpace=wrap;html=1;shadow=0;fontFamily=Helvetica;fontSize=12;align=center;strokeWidth=1;spacing=6;spacingTop=-4;" parent="WIyWlLk6GJQsqaUBKTNV-1" vertex="1">
          <mxGeometry x="60" y="634" width="120" height="50" as="geometry" />
        </mxCell>
        <mxCell id="h4HgqZ1DdEqafHkiH3Wq-19" value="是" style="text;html=1;align=center;verticalAlign=middle;resizable=0;points=[];autosize=1;strokeColor=none;" parent="WIyWlLk6GJQsqaUBKTNV-1" vertex="1">
          <mxGeometry x="180" y="634" width="30" height="20" as="geometry" />
        </mxCell>
        <mxCell id="h4HgqZ1DdEqafHkiH3Wq-20" value="" style="endArrow=none;html=1;" parent="WIyWlLk6GJQsqaUBKTNV-1" edge="1">
          <mxGeometry width="50" height="50" relative="1" as="geometry">
            <mxPoint x="180" y="658.71" as="sourcePoint" />
            <mxPoint x="240" y="658.71" as="targetPoint" />
          </mxGeometry>
        </mxCell>
      </root>
    </mxGraphModel>
  </diagram>
</mxfile>
